<?xml version="1.0" standalone="no"?>
<!DOCTYPE svg PUBLIC "-//W3C//DTD SVG 20010904//EN"
 "http://www.w3.org/TR/2001/REC-SVG-20010904/DTD/svg10.dtd">
<svg version="1.0" xmlns="http://www.w3.org/2000/svg"
 width="1024.000000pt" height="1024.000000pt" viewBox="0 0 1024.000000 1024.000000"
 preserveAspectRatio="xMidYMid meet">

<g transform="translate(0.000000,1024.000000) scale(0.100000,-0.100000)"
fill="#000000" stroke="none">
<path d="M0 5120 l0 -5120 5120 0 5120 0 0 5120 0 5120 -5120 0 -5120 0 0
-5120z m5520 3529 c254 -21 609 -91 820 -160 372 -123 799 -349 1076 -571 269
-215 526 -488 691 -733 61 -91 87 -135 60 -102 -8 9 -22 17 -32 17 -16 0 -17
-7 -11 -72 10 -109 30 -167 116 -343 179 -364 278 -672 334 -1042 15 -93 31
-190 37 -218 18 -87 29 -410 18 -540 -35 -412 -117 -774 -244 -1070 -115 -269
-248 -495 -454 -768 -143 -191 -219 -278 -356 -408 -181 -171 -327 -288 -465
-369 -99 -59 -115 -67 -145 -72 l-30 -6 25 19 c14 10 30 23 35 27 6 4 46 30
90 57 44 28 94 64 110 80 17 17 71 65 120 107 99 84 212 193 351 340 92 96
319 384 385 488 20 30 54 85 78 121 58 91 160 302 225 461 70 176 128 373 170
588 47 239 59 388 53 691 -3 216 -8 276 -31 405 -59 341 -158 670 -246 821
-29 49 -60 58 -60 17 0 -14 -5 -35 -11 -46 -6 -12 -15 -52 -20 -91 -5 -39 -16
-81 -24 -93 -8 -13 -15 -32 -15 -42 0 -10 -7 -27 -15 -38 -8 -10 -15 -34 -15
-51 0 -18 -3 -33 -7 -33 -5 0 -16 -28 -26 -63 -10 -34 -38 -102 -62 -152 -24
-49 -46 -98 -49 -107 -3 -10 -12 -18 -20 -18 -8 0 -17 -13 -21 -28 -3 -15 -15
-34 -25 -42 -11 -8 -20 -22 -20 -32 0 -10 -4 -18 -10 -18 -5 0 -10 -9 -10 -20
0 -11 -4 -20 -9 -20 -5 0 -12 -16 -16 -36 -3 -20 -9 -33 -12 -30 -3 3 -14 -6
-25 -19 -11 -14 -28 -25 -39 -25 -10 0 -19 -4 -19 -10 0 -5 -9 -10 -20 -10
-10 0 -24 -9 -30 -20 -9 -17 -17 -20 -47 -14 -26 5 -34 4 -29 -5 5 -7 -1 -11
-17 -11 l-24 0 -6 -237 c-8 -329 -36 -498 -134 -812 -59 -191 -114 -312 -215
-473 -207 -330 -428 -567 -683 -730 -262 -169 -466 -258 -747 -329 -274 -69
-495 -94 -743 -86 -202 7 -307 25 -475 79 -139 45 -200 72 -200 90 0 6 -10 22
-22 35 -19 20 -9 18 107 -22 161 -56 240 -72 418 -86 249 -20 593 3 827 54
143 32 352 103 475 161 301 144 510 298 718 531 144 162 296 398 380 590 74
169 159 479 189 690 13 96 18 558 6 680 -4 44 -3 59 2 40 7 -24 8 -19 7 27 -1
31 1 54 6 51 12 -7 9 18 -19 154 -58 288 -172 554 -357 833 -204 308 -476 560
-789 731 -232 127 -495 217 -773 265 -130 23 -178 27 -365 27 -256 0 -364 -14
-543 -73 -91 -29 -145 -54 -199 -90 -94 -63 -101 -69 -181 -168 -76 -94 -138
-209 -162 -302 -28 -108 -33 -312 -41 -1600 -4 -685 -11 -1231 -15 -1215 -6
28 -7 28 -8 5 -1 -22 -3 -23 -12 -8 -5 10 -13 122 -18 250 l-8 233 -3 -205
c-1 -113 -6 -245 -10 -295 -4 -49 -6 511 -4 1245 1 734 7 1362 12 1395 8 56 9
57 12 20 2 -40 3 -39 10 13 14 93 68 244 125 346 30 55 53 101 51 104 -3 2
-12 -11 -22 -30 -26 -50 -86 -139 -91 -134 -3 2 0 14 7 25 6 12 8 21 5 21 -2
0 -20 -30 -39 -67 -37 -75 -76 -215 -76 -275 0 -21 -3 -38 -8 -38 -4 0 -7 -98
-7 -217 0 -800 -9 -2005 -15 -1868 -4 88 -8 603 -9 1145 -1 542 -4 1010 -6
1040 -1 31 5 88 16 130 10 41 16 76 14 79 -13 12 -43 -94 -47 -167 -3 -46 -2
-79 1 -73 7 10 7 29 0 -1374 -2 -539 -7 -1023 -10 -1075 -3 -53 -6 48 -7 225
-8 1203 -12 1630 -17 1770 -4 138 0 245 20 568 2 32 11 69 19 82 9 14 16 30
16 37 -1 7 -8 0 -16 -15 -9 -16 -18 -26 -22 -23 -3 4 4 20 16 36 12 16 22 33
22 38 0 11 30 72 36 72 2 0 -5 -23 -15 -51 -15 -37 -16 -47 -5 -38 8 6 14 15
14 20 0 15 42 100 47 95 3 -2 -1 -14 -7 -27 -19 -35 -30 -79 -19 -79 5 0 9 5
9 11 0 16 53 120 58 114 3 -2 -2 -15 -10 -27 -8 -13 -17 -36 -21 -53 -5 -27
-4 -28 9 -10 8 10 14 24 14 29 0 6 5 4 11 -4 9 -12 10 -12 5 3 -7 21 31 154
46 163 6 4 6 -2 -1 -14 -14 -26 -14 -35 -1 -27 14 8 13 3 -6 -34 -9 -18 -14
-34 -12 -36 2 -3 14 16 26 41 12 25 17 42 11 38 -7 -4 -10 -2 -7 7 3 8 10 13
15 12 5 -1 24 27 42 63 42 84 51 78 12 -7 -30 -63 -33 -90 -7 -53 8 10 12 23
9 29 -4 5 -3 7 2 3 4 -4 27 16 50 45 68 82 127 133 193 167 34 17 62 35 62 39
0 4 12 13 27 20 22 10 24 14 12 22 -7 5 -25 9 -39 9 -23 1 -24 2 -7 13 10 7
31 23 45 36 l27 23 -32 -6 c-18 -3 -33 -2 -33 3 0 5 15 15 33 22 l32 13 -27 3
c-30 5 -39 23 -12 23 14 0 14 3 3 16 -10 12 -10 20 -1 34 9 15 8 17 -11 13
-18 -4 -16 1 13 27 29 25 31 30 13 25 -13 -4 -23 -3 -23 1 0 4 10 19 23 32 19
21 19 24 4 19 -24 -9 -44 2 -26 13 10 7 10 12 0 23 -9 11 -9 17 -1 22 6 4 9
13 6 20 -3 8 4 32 15 54 11 23 20 61 21 86 2 29 7 45 15 45 7 0 13 8 13 18 0
11 9 30 21 43 11 13 28 36 37 51 8 14 26 32 39 39 26 14 29 24 11 35 -23 15
-241 3 -326 -17 -280 -65 -706 -292 -930 -496 -162 -147 -299 -335 -419 -577
-65 -130 -86 -187 -121 -331 -50 -203 -52 -276 -56 -1863 -2 -705 -6 -1285 -9
-1288 -7 -7 -15 244 -22 651 -3 182 -8 341 -12 354 -6 23 -7 24 -15 5 -6 -14
-7 -10 -3 14 2 17 0 32 -5 32 -6 0 -10 -5 -10 -11 0 -6 -7 -4 -15 5 -8 8 -15
21 -15 30 0 9 -15 19 -40 26 -24 6 -40 17 -40 25 0 8 -4 15 -9 15 -5 0 -12 18
-16 40 -5 30 -11 40 -26 40 -12 0 -19 7 -19 19 0 33 -11 51 -32 51 -21 0 -54
63 -42 82 4 6 3 8 -2 5 -5 -3 -25 17 -44 43 -19 27 -41 49 -47 50 -7 0 -16 12
-19 28 -6 26 -21 46 -76 99 -16 14 -28 31 -28 37 0 7 -9 18 -20 26 -11 8 -20
23 -20 33 0 15 -3 17 -13 8 -9 -7 -24 -8 -47 -1 -21 6 -49 6 -77 0 -24 -6 -49
-8 -54 -5 -5 4 -9 -3 -9 -14 0 -12 -4 -21 -10 -21 -5 0 -10 4 -10 8 0 5 -14 7
-30 4 -22 -3 -32 -11 -36 -28 -3 -13 -10 -22 -15 -19 -10 7 -31 -30 -22 -39 3
-3 -1 -6 -10 -6 -9 0 -19 -10 -22 -22 -30 -138 -28 -608 4 -858 38 -299 -5
-150 -56 190 -32 218 -36 267 -36 445 0 201 17 399 49 558 9 43 13 83 11 90
-3 7 -6 -1 -6 -16 -1 -20 -5 -26 -13 -21 -7 4 -10 4 -6 -1 4 -4 0 -15 -10 -24
-10 -9 -26 -35 -36 -58 -10 -23 -22 -40 -27 -37 -4 2 -12 -12 -18 -32 -6 -20
-16 -44 -24 -53 -13 -15 -24 -48 -46 -131 l-9 -35 -1 34 c-2 82 59 406 117
621 108 398 381 951 616 1246 192 241 322 374 531 549 420 351 991 632 1490
734 400 82 697 102 1065 70z m-993 -865 c-3 -3 -12 -4 -19 -1 -8 3 -5 6 6 6
11 1 17 -2 13 -5z m-197 -98 c0 -2 -8 -10 -17 -17 -16 -13 -17 -12 -4 4 13 16
21 21 21 13z m207 -2 c-3 -3 -12 -4 -19 -1 -8 3 -5 6 6 6 11 1 17 -2 13 -5z
m-189 -38 c-7 -8 -15 -12 -17 -11 -5 6 10 25 20 25 5 0 4 -6 -3 -14z m62 -5
c0 -5 -7 -12 -16 -15 -14 -5 -15 -4 -4 9 14 17 20 19 20 6z m-160 -5 c0 -2 -7
-9 -15 -16 -13 -11 -14 -10 -9 4 5 14 24 23 24 12z m0 -51 c-24 -25 -46 -45
-49 -45 -5 0 58 70 74 82 26 20 15 4 -25 -37z m290 35 c0 -5 -5 -10 -11 -10
-5 0 -7 5 -4 10 3 6 8 10 11 10 2 0 4 -4 4 -10z m-240 -45 c-7 -8 -17 -12 -22
-9 -5 3 -1 15 9 26 20 22 32 6 13 -17z m190 10 c-14 -8 -29 -14 -35 -14 -5 0
1 6 15 14 14 8 30 14 35 14 6 0 -1 -6 -15 -14z m-290 1 c0 -3 -4 -8 -10 -11
-5 -3 -10 -1 -10 4 0 6 5 11 10 11 6 0 10 -2 10 -4z m160 0 c0 -3 -22 -31 -50
-62 -27 -31 -50 -63 -50 -71 0 -7 -5 -13 -11 -13 -16 0 -9 13 50 84 52 63 61
72 61 62z m44 -8 c-5 -8 0 -9 14 -6 31 9 27 -9 -6 -26 -15 -8 -60 -49 -100
-90 -40 -42 -72 -71 -72 -66 0 6 27 37 60 69 57 56 84 95 38 55 -20 -17 -19
-16 2 12 14 17 28 27 31 21 6 -8 22 7 25 26 3 15 4 17 10 17 3 0 2 -5 -2 -12z
m-200 -163 c-9 -14 -18 -25 -20 -25 -2 0 2 11 8 25 6 14 15 25 20 25 5 0 1
-11 -8 -25z m-63 -58 c-10 -9 -11 -8 -5 6 3 10 9 15 12 12 3 -3 0 -11 -7 -18z
m33 -1 c-3 -9 -10 -16 -15 -16 -6 0 -5 9 1 21 13 24 24 20 14 -5z m-198 -92
c-4 -9 -9 -15 -11 -12 -3 3 -3 13 1 22 4 9 9 15 11 12 3 -3 3 -13 -1 -22z
m-105 -105 c-5 -13 -10 -19 -10 -12 -1 15 10 45 15 40 3 -2 0 -15 -5 -28z m83
-23 c-9 -26 -19 -45 -22 -42 -2 3 3 26 13 51 22 60 30 53 9 -9z m1199 7 c-51
-2 -136 -2 -190 0 -54 1 -12 3 92 3 105 0 149 -2 98 -3z m-1259 -37 c-3 -15
-8 -25 -11 -23 -2 3 -1 17 3 31 3 15 8 25 11 23 2 -3 1 -17 -3 -31z m-167 2
c-3 -8 -6 -5 -6 6 -1 11 2 17 5 13 3 -3 4 -12 1 -19z m40 0 c-3 -8 -6 -5 -6 6
-1 11 2 17 5 13 3 -3 4 -12 1 -19z m90 0 c-3 -8 -6 -5 -6 6 -1 11 2 17 5 13 3
-3 4 -12 1 -19z m-220 -65 c-3 -10 -5 -2 -5 17 0 19 2 27 5 18 2 -10 2 -26 0
-35z m120 25 c-3 -8 -6 -5 -6 6 -1 11 2 17 5 13 3 -3 4 -12 1 -19z m85 -30
c-40 -155 -51 -233 -55 -378 -3 -90 -2 -126 2 -85 5 46 8 -15 9 -179 1 -137 5
-247 8 -244 3 3 7 127 8 275 3 281 0 258 61 542 16 73 32 117 41 108 3 -2 0
-16 -6 -31 -5 -15 -10 -41 -10 -57 0 -17 -6 -42 -14 -57 -8 -15 -19 -59 -25
-99 -13 -83 -13 -140 0 -73 18 97 43 191 51 196 11 7 10 -15 -3 -56 -8 -25
-11 -363 -11 -1220 1 -652 -2 -1205 -7 -1230 -5 -27 -9 181 -11 530 -2 607 -8
1011 -15 1018 -2 2 -3 -358 -1 -799 1 -442 -1 -761 -5 -709 -4 52 -8 273 -10
490 -2 370 -10 689 -22 945 -2 61 -2 81 2 45 9 -93 18 387 11 580 -4 85 -7
151 -9 145 -3 -12 -12 -543 -13 -785 -1 -91 4 -352 10 -580 5 -228 7 -433 2
-455 -5 -26 -8 33 -9 165 -2 220 -18 676 -30 880 -8 116 -8 112 -5 -60 1 -102
5 -198 7 -215 2 -16 -1 -37 -6 -46 -7 -11 -6 -31 1 -62 8 -31 11 -160 10 -409
l-3 -363 -5 370 c-5 334 -6 347 -8 131 -1 -132 -5 -237 -8 -233 -8 8 -6 1737
1 1775 19 88 69 281 73 277 3 -2 0 -24 -6 -47z m-165 -10 c-2 -13 -4 -5 -4 17
-1 22 1 32 4 23 2 -10 2 -28 0 -40z m40 15 c-3 -10 -5 -4 -5 12 0 17 2 24 5
18 2 -7 2 -21 0 -30z m90 5 c-3 -8 -6 -5 -6 6 -1 11 2 17 5 13 3 -3 4 -12 1
-19z m-11 -40 c-3 -13 -10 -49 -16 -81 -7 -32 -14 -57 -16 -54 -4 3 3 46 22
135 2 12 7 22 9 22 3 0 3 -10 1 -22z m-129 -70 c-2 -13 -4 -3 -4 22 0 25 2 35
4 23 2 -13 2 -33 0 -45z m177 -48 c-35 -149 -43 -175 -43 -150 -2 37 53 268
57 245 3 -10 -4 -53 -14 -95z m-134 30 c-4 -23 -11 -44 -15 -48 -4 -4 -5 4 -2
18 4 14 7 35 7 48 0 12 4 22 9 22 4 0 5 -18 1 -40z m35 -17 c-9 -50 -17 -34
-9 18 4 24 9 38 12 31 2 -7 1 -29 -3 -49z m-148 -40 c-3 -10 -5 -2 -5 17 0 19
2 27 5 18 2 -10 2 -26 0 -35z m38 -350 c0 -252 -2 -347 -6 -258 -12 262 -9
655 5 655 1 0 1 -179 1 -397z m41 -654 c-2 -550 -7 -1003 -10 -1006 -6 -6 -8
494 -6 1470 1 430 4 537 16 537 2 0 2 -450 0 -1001z m46 924 c-6 -41 -10 -506
-11 -1177 -1 -611 -4 -1112 -6 -1115 -3 -2 -5 512 -5 1144 0 842 3 1158 12
1186 17 57 21 40 10 -38z m34 10 c-3 -38 -7 -486 -8 -998 0 -511 -4 -991 -7
-1065 -4 -74 -8 339 -9 918 -2 761 0 1075 9 1132 6 44 14 80 16 80 3 0 3 -30
-1 -67z m-186 -228 l-6 -230 -2 186 c-2 152 5 290 12 277 1 -2 -1 -106 -4
-233z m-43 108 c-3 -10 -5 -4 -5 12 0 17 2 24 5 18 2 -7 2 -21 0 -30z m0 -750
c-1 -136 -2 -27 -2 242 0 270 1 381 2 248 2 -133 2 -353 0 -490z m-30 100 c-1
-103 -2 -21 -2 182 0 204 1 288 2 188 2 -100 2 -266 0 -370z m100 120 c-1 -81
-3 -17 -3 142 0 160 2 226 3 148 2 -78 2 -208 0 -290z m-40 65 c-3 -8 -6 -5
-6 6 -1 11 2 17 5 13 3 -3 4 -12 1 -19z m3104 -36 c-7 -2 -18 1 -23 6 -8 8 -4
9 13 5 13 -4 18 -8 10 -11z m46 -34 c12 -11 27 -33 33 -48 7 -16 25 -34 42
-41 17 -7 44 -24 60 -37 22 -18 32 -22 37 -13 6 9 11 8 21 -3 7 -9 16 -14 20
-11 25 15 160 -419 186 -599 23 -154 15 -473 -15 -640 -66 -363 -265 -763
-498 -1001 -145 -148 -364 -306 -502 -361 -23 -9 -38 -21 -34 -27 3 -5 1 -7
-5 -4 -15 10 -43 -3 -35 -16 3 -5 2 -7 -3 -4 -6 3 -70 -15 -144 -39 -126 -43
-338 -89 -525 -115 -105 -15 -471 -5 -540 14 -27 8 -79 22 -115 32 -36 10 -72
24 -80 30 -8 7 -20 10 -27 8 -6 -2 -14 0 -17 5 -6 10 30 9 40 -1 14 -14 44 -7
44 11 0 37 -13 92 -22 92 -4 0 -31 16 -59 35 -53 37 -58 38 -125 35 -35 -1
-45 4 -72 34 -16 19 -33 44 -37 55 -3 12 -10 21 -15 21 -16 0 -34 44 -37 93
-1 26 1 47 5 47 4 0 22 -23 41 -51 73 -107 215 -199 366 -238 134 -34 260 -44
488 -39 193 5 228 9 390 42 208 42 340 89 500 177 242 133 402 282 591 554 33
46 111 210 151 314 83 219 119 434 119 706 -2 361 -79 654 -253 951 -25 42
-27 51 -13 51 9 0 27 -8 39 -19z m-3146 -433 c-9 -62 -10 -57 -6 54 3 68 6
170 7 225 2 73 3 58 5 -54 2 -85 -1 -186 -6 -225z m66 -247 c-1 -112 -2 -21
-2 202 0 223 1 314 2 203 2 -112 2 -294 0 -405z m-30 385 c-2 -27 -3 -5 -3 47
0 52 1 74 3 48 2 -27 2 -69 0 -95z m0 -550 c-1 -93 -3 -17 -3 167 0 184 2 260
3 168 2 -93 2 -243 0 -335z m-89 362 c0 -16 -2 -15 -8 5 -4 14 -8 34 -8 45 0
16 2 15 8 -5 4 -14 8 -34 8 -45z m59 -427 c-1 -62 -3 -12 -3 112 0 124 2 174
3 113 2 -62 2 -164 0 -225z m-1870 125 c-3 -10 -5 -4 -5 12 0 17 2 24 5 18 2
-7 2 -21 0 -30z m1800 -25 c-2 -13 -4 -5 -4 17 -1 22 1 32 4 23 2 -10 2 -28 0
-40z m0 -150 c-2 -13 -4 -3 -4 22 0 25 2 35 4 23 2 -13 2 -33 0 -45z m140 -10
c-3 -7 -5 -2 -5 12 0 14 2 19 5 13 2 -7 2 -19 0 -25z m-70 -150 c-2 -13 -4 -3
-4 22 0 25 2 35 4 23 2 -13 2 -33 0 -45z m30 -15 c-3 -10 -5 -4 -5 12 0 17 2
24 5 18 2 -7 2 -21 0 -30z m3680 5 c-3 -8 -6 -5 -6 6 -1 11 2 17 5 13 3 -3 4
-12 1 -19z m-3710 -140 c-2 -18 -4 -6 -4 27 0 33 2 48 4 33 2 -15 2 -42 0 -60z
m3790 -5 c-2 -16 -4 -3 -4 27 0 30 2 43 4 28 2 -16 2 -40 0 -55z m-130 35 c-3
-7 -5 -2 -5 12 0 14 2 19 5 13 2 -7 2 -19 0 -25z m90 0 c-3 -7 -5 -2 -5 12 0
14 2 19 5 13 2 -7 2 -19 0 -25z m20 -20 c-2 -13 -4 -5 -4 17 -1 22 1 32 4 23
2 -10 2 -28 0 -40z m-4601 5 c-10 -10 -19 5 -10 18 6 11 8 11 12 0 2 -7 1 -15
-2 -18z m891 -30 c-3 -10 -5 -2 -5 17 0 19 2 27 5 18 2 -10 2 -26 0 -35z
m3690 -10 c-3 -10 -5 -4 -5 12 0 17 2 24 5 18 2 -7 2 -21 0 -30z m-40 -5 c-3
-7 -5 -2 -5 12 0 14 2 19 5 13 2 -7 2 -19 0 -25z m20 0 c-3 -8 -6 -5 -6 6 -1
11 2 17 5 13 3 -3 4 -12 1 -19z m140 -65 c-3 -10 -5 -2 -5 17 0 19 2 27 5 18
2 -10 2 -26 0 -35z m-230 -85 c-2 -24 -4 -7 -4 37 0 44 2 63 4 43 2 -21 2 -57
0 -80z m70 80 c-3 -7 -5 -2 -5 12 0 14 2 19 5 13 2 -7 2 -19 0 -25z m140 -110
c-2 -29 -3 -8 -3 47 0 55 1 79 3 53 2 -26 2 -71 0 -100z m-190 55 c-2 -16 -4
-3 -4 27 0 30 2 43 4 28 2 -16 2 -40 0 -55z m-40 0 c-2 -16 -4 -5 -4 22 0 28
2 40 4 28 2 -13 2 -35 0 -50z m60 30 c-3 -10 -5 -4 -5 12 0 17 2 24 5 18 2 -7
2 -21 0 -30z m50 -55 c-2 -18 -4 -4 -4 32 0 36 2 50 4 33 2 -18 2 -48 0 -65z
m20 0 c-2 -18 -4 -4 -4 32 0 36 2 50 4 33 2 -18 2 -48 0 -65z m20 5 c-2 -16
-4 -3 -4 27 0 30 2 43 4 28 2 -16 2 -40 0 -55z m20 -5 c-3 -7 -5 -2 -5 12 0
14 2 19 5 13 2 -7 2 -19 0 -25z m-3760 -155 c-2 -32 -3 -6 -3 57 0 63 1 89 3
58 2 -32 2 -84 0 -115z m3660 135 c-3 -7 -5 -2 -5 12 0 14 2 19 5 13 2 -7 2
-19 0 -25z m20 -110 c-2 -29 -3 -8 -3 47 0 55 1 79 3 53 2 -26 2 -71 0 -100z
m120 -1 c-2 -23 -3 -1 -3 48 0 50 1 68 3 42 2 -26 2 -67 0 -90z m-3730 -59
c-2 -35 -3 -7 -3 62 0 69 1 97 3 63 2 -35 2 -91 0 -125z m3560 160 c-3 -8 -6
-5 -6 6 -1 11 2 17 5 13 3 -3 4 -12 1 -19z m30 -45 c-3 -10 -5 -4 -5 12 0 17
2 24 5 18 2 -7 2 -21 0 -30z m-60 5 c-3 -8 -6 -5 -6 6 -1 11 2 17 5 13 3 -3 4
-12 1 -19z m20 -10 c-3 -7 -5 -2 -5 12 0 14 2 19 5 13 2 -7 2 -19 0 -25z m20
0 c-3 -7 -5 -2 -5 12 0 14 2 19 5 13 2 -7 2 -19 0 -25z m-120 0 c-3 -8 -6 -5
-6 6 -1 11 2 17 5 13 3 -3 4 -12 1 -19z m-3320 -130 c-2 -29 -3 -8 -3 47 0 55
1 79 3 53 2 -26 2 -71 0 -100z m3298 50 c-4 -51 -10 -111 -15 -133 -7 -37 -8
-38 -10 -10 -2 25 -5 20 -16 -25 l-13 -55 4 60 4 60 -12 -50 -13 -50 -7 34
c-9 44 -7 73 3 41 l8 -25 1 26 c1 15 4 42 8 60 l7 34 7 -35 c6 -32 7 -30 9 20
l3 55 6 -55 c6 -54 7 -53 15 43 5 53 11 97 13 97 3 0 2 -42 -2 -92z m-3258
-50 c-2 -24 -4 -5 -4 42 0 47 2 66 4 43 2 -24 2 -62 0 -85z m3310 45 c-2 -16
-4 -3 -4 27 0 30 2 43 4 28 2 -16 2 -40 0 -55z m20 0 c-2 -16 -4 -3 -4 27 0
30 2 43 4 28 2 -16 2 -40 0 -55z m130 -5 c-2 -18 -4 -6 -4 27 0 33 2 48 4 33
2 -15 2 -42 0 -60z m20 -10 c-2 -18 -4 -4 -4 32 0 36 2 50 4 33 2 -18 2 -48 0
-65z m-189 16 l-3 -49 -5 57 c-3 31 -1 53 3 49 5 -5 7 -30 5 -57z m59 19 c-3
-10 -5 -2 -5 17 0 19 2 27 5 18 2 -10 2 -26 0 -35z m20 15 c-3 -7 -5 -2 -5 12
0 14 2 19 5 13 2 -7 2 -19 0 -25z m20 0 c-3 -7 -5 -2 -5 12 0 14 2 19 5 13 2
-7 2 -19 0 -25z m150 -15 c-3 -10 -5 -2 -5 17 0 19 2 27 5 18 2 -10 2 -26 0
-35z m-40 0 c-3 -10 -5 -4 -5 12 0 17 2 24 5 18 2 -7 2 -21 0 -30z m20 -5 c-3
-8 -6 -5 -6 6 -1 11 2 17 5 13 3 -3 4 -12 1 -19z m-3610 -55 c-2 -16 -4 -5 -4
22 0 28 2 40 4 28 2 -13 2 -35 0 -50z m3510 45 c-3 -8 -6 -5 -6 6 -1 11 2 17
5 13 3 -3 4 -12 1 -19z m-57 -28 c2 24 3 23 10 -5 4 -16 9 -50 10 -75 l3 -45
8 40 c5 28 6 15 4 -45 -2 -60 -1 -73 4 -45 l8 40 3 -35 c1 -19 6 -48 11 -65 5
-21 7 -11 4 35 -3 57 -3 60 5 25 5 -22 6 -62 3 -90 -6 -46 -7 -47 -13 -20 -5
23 -9 10 -15 -51 -5 -57 -14 -94 -31 -120 -12 -22 -44 -83 -71 -136 -26 -53
-52 -97 -56 -97 -5 -1 -7 5 -5 12 3 12 79 156 122 232 12 22 26 67 30 100 16
142 16 141 7 115 -9 -24 -9 -24 -10 -3 -1 16 -6 21 -16 17 -10 -4 -15 0 -15
12 0 16 2 17 10 4 7 -11 9 -4 9 25 -1 27 -3 34 -7 20 -4 -11 -15 -21 -24 -21
-13 -1 -18 6 -18 27 0 15 5 31 10 34 6 3 9 25 8 48 -1 41 -1 41 -5 7 -3 -19
-8 -39 -13 -44 -9 -9 -8 12 5 84 7 40 9 42 16 20 l7 -25 2 25z m-100 -107
c-10 -15 -11 -14 -6 7 3 14 7 45 8 70 l2 45 3 -52 c2 -29 -1 -61 -7 -70z m167
60 c-3 -10 -5 -4 -5 12 0 17 2 24 5 18 2 -7 2 -21 0 -30z m-125 -33 c2 19 4
-1 2 -45 -2 -64 -1 -71 5 -35 l8 45 1 -42 c2 -31 6 -43 17 -43 11 0 15 -11 13
-47 l-1 -48 -7 45 -7 45 -3 -50 -3 -50 -6 47 c-4 32 -10 45 -17 40 -11 -7 -15
-27 -30 -147 -3 -27 -10 -60 -15 -74 -5 -13 -7 -31 -4 -40 3 -9 -4 -34 -15
-56 -11 -22 -20 -44 -20 -50 0 -5 22 32 49 83 32 61 47 102 45 120 l-4 27 9
-25 9 -25 7 23 c9 27 25 30 18 2 -3 -11 0 -20 6 -20 6 0 12 17 12 38 1 20 5
51 10 67 5 20 6 10 2 -30 -5 -59 -22 -115 -34 -115 -4 0 -19 -26 -34 -57 -14
-32 -37 -74 -50 -93 -12 -19 -28 -58 -35 -87 -6 -28 -18 -60 -26 -70 -14 -17
-15 -16 -8 7 26 88 31 117 22 142 -7 19 -5 34 6 56 8 16 13 38 10 49 -3 12 0
31 6 43 11 21 40 174 40 213 0 10 -4 16 -9 12 -10 -5 -8 25 6 140 l8 60 5 -45
6 -45 6 35z m185 -27 c-2 -16 -4 -3 -4 27 0 30 2 43 4 28 2 -16 2 -40 0 -55z
m20 10 c-2 -16 -4 -5 -4 22 0 28 2 40 4 28 2 -13 2 -35 0 -50z m-60 35 c-3 -8
-6 -5 -6 6 -1 11 2 17 5 13 3 -3 4 -12 1 -19z m20 0 c-3 -8 -6 -5 -6 6 -1 11
2 17 5 13 3 -3 4 -12 1 -19z m60 -30 c-2 -13 -4 -5 -4 17 -1 22 1 32 4 23 2
-10 2 -28 0 -40z m-110 -25 c-3 -10 -5 -4 -5 12 0 17 2 24 5 18 2 -7 2 -21 0
-30z m40 -69 c3 -44 1 -95 -5 -114 -8 -29 -9 -20 -8 55 0 50 -3 106 -8 125 -6
27 -5 32 4 24 6 -7 14 -47 17 -90z m-3330 -41 c-2 -21 -4 -4 -4 37 0 41 2 58
4 38 2 -21 2 -55 0 -75z m3030 77 c-3 -11 -1 -20 4 -20 5 0 8 -13 7 -30 -1
-16 -5 -30 -9 -30 -8 0 -18 70 -11 88 7 20 15 14 9 -8z m-3110 -67 c-2 -16 -4
-3 -4 27 0 30 2 43 4 28 2 -16 2 -40 0 -55z m3430 -5 c-2 -18 -4 -6 -4 27 0
33 2 48 4 33 2 -15 2 -42 0 -60z m20 50 c-3 -8 -6 -5 -6 6 -1 11 2 17 5 13 3
-3 4 -12 1 -19z m18 -28 c-9 -41 -17 -33 -9 9 4 17 9 30 11 27 3 -2 2 -19 -2
-36z m-378 -10 c-4 -16 -3 -29 1 -29 4 1 16 1 27 0 16 -1 17 -3 6 -10 -8 -5
-20 -7 -28 -4 -9 4 -13 -4 -13 -26 0 -17 -4 -31 -10 -31 -5 0 -7 14 -3 33 3
17 3 29 -2 25 -4 -4 -11 -31 -15 -60 -7 -50 -8 -50 -9 -13 -1 34 35 145 47
145 3 0 2 -13 -1 -30z m101 -67 c-2 -7 -8 -9 -15 -5 -7 5 -9 24 -5 57 l6 50 8
-45 c4 -25 7 -51 6 -57z m-48 -40 c-8 -15 -9 -13 -6 12 2 17 6 48 7 70 2 36 3
35 6 -12 2 -29 -1 -61 -7 -70z m71 46 c-9 -22 -10 -22 -10 -3 -1 11 2 24 6 27
12 12 14 0 4 -24z m47 -4 c-2 -19 0 -35 4 -35 4 0 8 -7 8 -16 0 -9 -6 -14 -12
-11 -7 2 -13 11 -12 20 3 65 5 77 10 77 3 0 4 -16 2 -35z m59 -2 c-3 -10 -5
-4 -5 12 0 17 2 24 5 18 2 -7 2 -21 0 -30z m-218 -78 c-6 -43 -15 -85 -20 -92
-6 -7 -7 -18 -3 -24 4 -7 3 -9 -3 -6 -12 8 -26 -20 -18 -34 3 -4 -6 -30 -20
-56 -14 -26 -25 -52 -25 -56 0 -5 -17 -39 -37 -75 -43 -77 -48 -93 -25 -85 12
4 10 -2 -7 -20 -13 -15 -29 -24 -35 -20 -6 3 -8 3 -4 -2 4 -4 -1 -20 -12 -35
-11 -16 -20 -34 -20 -42 0 -18 -49 -96 -50 -78 0 8 9 29 20 45 29 44 25 65 -5
25 -14 -19 -25 -39 -25 -46 0 -16 -51 -77 -58 -69 -3 3 4 15 15 28 11 12 35
50 53 85 32 61 55 90 44 55 -3 -10 4 -1 15 19 12 20 25 40 31 43 5 3 10 11 10
18 0 19 -68 -54 -104 -113 -20 -32 -36 -62 -36 -67 0 -5 -16 -25 -36 -46 -35
-36 -37 -45 -19 -89 4 -11 3 -18 -4 -18 -6 0 -10 3 -9 8 4 14 -14 52 -24 52
-6 0 10 22 36 50 47 50 65 89 24 54 l-22 -19 22 32 c31 44 27 51 -10 17 -18
-16 -13 -7 12 20 25 26 62 59 83 72 66 43 111 97 155 188 24 48 41 90 39 93
-3 2 -26 -38 -51 -90 -26 -52 -59 -105 -74 -118 -14 -13 -20 -16 -13 -6 8 9
11 20 8 23 -3 3 -48 -36 -99 -87 -51 -51 -96 -93 -100 -93 -3 -1 -18 -11 -32
-23 -14 -13 -28 -18 -31 -12 -4 5 -12 6 -18 2 -7 -4 -6 0 2 10 7 9 17 14 22
11 5 -2 19 2 32 11 13 8 27 12 32 8 4 -5 5 0 2 10 -4 9 -2 17 3 17 17 0 191
183 211 222 11 22 23 37 26 34 3 -3 -6 -25 -21 -50 -28 -48 -32 -61 -16 -51 6
3 28 42 50 87 45 90 70 129 70 110 0 -7 5 -10 10 -7 6 4 8 15 5 26 -4 11 4 42
19 73 14 30 26 73 26 95 0 37 9 76 16 69 1 -2 -2 -39 -7 -83z m316 8 c-9 -15
-14 -20 -11 -10 4 11 9 31 13 45 5 19 8 22 11 10 2 -9 -4 -29 -13 -45z m-388
10 c-3 -10 -5 -4 -5 12 0 17 2 24 5 18 2 -7 2 -21 0 -30z m182 21 c8 -7 -11
-22 -27 -19 -9 2 -20 4 -24 4 -4 1 -5 8 -2 16 6 14 37 13 53 -1z m104 -4 c-3
-12 -8 -19 -11 -16 -5 6 5 36 12 36 2 0 2 -9 -1 -20z m-26 -12 c-3 -8 -6 -5
-6 6 -1 11 2 17 5 13 3 -3 4 -12 1 -19z m-291 -77 c-9 -20 -20 -49 -26 -66 -8
-21 -13 -26 -19 -16 -6 10 -10 9 -14 -3 -4 -9 -2 -16 4 -16 12 0 -64 -146 -88
-170 -13 -13 27 68 47 95 4 6 11 21 15 34 5 18 4 22 -6 15 -8 -4 -5 6 6 23 11
17 24 31 28 30 8 -2 56 107 58 133 1 10 3 8 6 -4 3 -10 -2 -35 -11 -55z m371
37 c-3 -7 -5 -2 -5 12 0 14 2 19 5 13 2 -7 2 -19 0 -25z m-200 10 c-2 -7 -8
-24 -12 -36 -6 -22 -5 -23 14 -13 23 13 29 -1 11 -29 -8 -12 -10 -12 -10 5 0
17 -2 17 -10 5 -13 -20 -13 -43 0 -35 15 9 5 -64 -15 -113 -20 -49 -33 -49
-15 0 17 46 23 101 10 93 -5 -3 -10 -16 -10 -29 0 -28 -30 -119 -37 -112 -3 3
0 19 5 36 7 18 7 28 2 25 -6 -4 -10 1 -10 9 0 9 3 16 8 16 10 0 45 98 48 132
2 32 11 58 20 58 3 0 4 -6 1 -12z m24 -21 c-8 -8 -11 -7 -11 4 0 20 13 34 18
19 3 -7 -1 -17 -7 -23z m55 -21 c-3 -18 -13 -41 -21 -52 -13 -17 -13 -14 0 18
8 21 15 50 16 65 0 15 3 22 6 15 3 -7 2 -28 -1 -46z m-212 -23 c-4 -35 -17
-76 -33 -103 -14 -25 -29 -54 -34 -64 -4 -10 -10 -16 -13 -14 -3 3 11 36 30
74 20 38 36 80 36 94 0 27 10 70 16 70 2 0 1 -26 -2 -57z m27 24 c-10 -9 -11
-8 -5 6 3 10 9 15 12 12 3 -3 0 -11 -7 -18z m58 -23 c-2 -33 -22 -83 -75 -189
-39 -79 -70 -146 -67 -148 2 -3 0 -8 -6 -12 -6 -3 -11 -1 -11 5 0 6 -5 8 -11
4 -6 -3 3 13 20 36 16 23 35 58 42 78 7 20 25 58 41 84 16 26 37 79 46 117 9
39 18 71 20 71 2 0 2 -21 1 -46z m-109 -23 c0 -6 -4 -13 -10 -16 -5 -3 -10 1
-10 9 0 9 5 16 10 16 6 0 10 -4 10 -9z m280 -140 c-39 -72 -73 -131 -75 -131
-5 0 7 44 15 55 5 6 23 37 41 69 17 33 43 75 55 94 13 19 24 39 24 45 0 6 3 8
6 4 3 -3 -26 -64 -66 -136z m-309 86 c-10 -9 -11 -8 -5 6 3 10 9 15 12 12 3
-3 0 -11 -7 -18z m-30 -58 c-12 -19 -21 -30 -21 -26 0 14 31 69 36 64 3 -3 -4
-20 -15 -38z m-68 -20 c-10 -17 -24 -36 -32 -42 -8 -7 -2 7 14 31 32 49 45 57
18 11z m162 -94 c-26 -48 -42 -84 -36 -80 6 3 24 32 40 64 21 40 35 57 50 58
12 1 21 0 21 -2 0 -2 -14 -29 -31 -60 -17 -31 -28 -59 -26 -62 3 -3 19 21 36
53 16 33 36 68 44 79 14 18 15 17 12 -20 -6 -70 -27 -128 -68 -187 -22 -32
-45 -58 -50 -58 -6 0 -1 10 10 23 25 27 55 86 78 150 25 69 12 69 -14 0 -39
-101 -49 -120 -83 -159 -18 -22 -25 -33 -15 -25 27 21 20 -3 -8 -27 -14 -12
-25 -28 -25 -36 0 -7 -7 -19 -15 -26 -24 -20 25 89 62 139 19 23 38 53 44 65
10 17 6 16 -19 -7 -16 -16 -53 -75 -81 -131 -51 -104 -131 -203 -153 -190 -6
4 -9 1 -6 -7 3 -8 -1 -19 -8 -26 -18 -18 -29 -16 -14 2 7 9 10 18 7 21 -3 4 1
13 9 21 8 8 11 19 8 25 -4 7 -2 8 4 4 6 -4 8 -14 5 -22 -5 -14 -3 -14 16 -3
25 17 28 31 4 22 -11 -4 -3 11 21 41 21 26 35 50 31 54 -4 4 -10 2 -12 -5 -7
-19 -61 -84 -70 -84 -4 1 -8 -4 -8 -11 0 -7 -17 -22 -37 -33 -21 -12 -49 -32
-64 -46 -16 -15 -24 -19 -22 -9 2 8 10 20 18 27 18 15 6 17 -21 3 -16 -9 -17
-14 -8 -32 10 -18 4 -27 -42 -74 -29 -29 -54 -60 -55 -69 -3 -17 11 -20 21 -5
3 6 1 10 -6 10 -8 0 -8 4 1 15 7 8 17 15 22 15 6 0 5 -7 -2 -15 -18 -21 -3
-19 33 7 l32 22 -24 -27 c-14 -15 -30 -27 -37 -27 -7 0 -14 -4 -16 -8 -11 -26
-371 -223 -384 -210 -2 3 60 37 138 75 130 65 219 120 219 139 1 4 -5 10 -11
14 -7 5 10 28 49 65 34 32 59 61 56 63 -3 3 -27 -18 -53 -46 -26 -29 -51 -52
-57 -52 -5 0 17 27 50 60 33 33 55 60 49 60 -6 0 -21 -11 -34 -25 -12 -13 -27
-22 -32 -19 -5 4 -23 -6 -39 -22 l-29 -28 3 30 c7 57 107 209 137 209 8 0 15
6 15 12 0 7 10 20 23 28 29 21 28 11 -4 -31 -20 -26 -24 -37 -15 -47 6 -8 8
-17 4 -20 -3 -4 -2 -7 4 -7 6 0 14 -12 17 -26 6 -21 9 -24 21 -14 8 7 15 24
16 39 0 14 3 20 6 14 7 -20 17 -16 72 27 35 28 51 48 51 64 0 57 15 91 66 146
30 32 54 63 54 69 0 20 93 196 97 185 2 -7 -17 -51 -42 -99z m-136 29 c-11
-22 -55 -70 -97 -109 -42 -38 -93 -87 -114 -107 -21 -21 -38 -34 -38 -29 0 4
52 58 115 119 63 62 122 126 130 143 9 17 19 29 21 26 3 -3 -5 -22 -17 -43z
m-84 -40 c-26 -39 -230 -244 -242 -244 -11 0 -63 -52 -63 -64 0 -5 15 5 33 22
29 29 35 31 46 18 13 -16 7 -36 -11 -36 -7 0 -6 6 2 15 19 23 1 18 -36 -10
-46 -35 -55 -12 -13 31 18 19 37 34 42 34 12 0 219 217 235 246 7 13 17 24 22
24 5 0 -2 -16 -15 -36z m365 -64 c-16 -31 -23 -18 -8 15 7 15 14 23 16 17 2
-6 -2 -21 -8 -32z m-50 -65 c-12 -19 -27 -41 -34 -48 -6 -6 -31 -37 -56 -67
-66 -82 -237 -250 -297 -292 -29 -21 -53 -36 -53 -34 0 2 26 25 58 50 122 100
283 273 361 389 37 55 55 57 21 2z m-440 -120 c0 -3 -21 -29 -47 -59 -76 -86
-183 -247 -183 -275 0 -6 -4 -11 -10 -11 -5 0 -10 3 -10 8 0 14 102 177 127
205 15 15 22 27 17 27 -20 0 -63 -56 -105 -135 -23 -44 -53 -93 -66 -109 -13
-16 -21 -31 -18 -35 4 -3 15 5 25 19 11 14 20 21 20 16 0 -13 -51 -66 -64 -66
-5 0 -18 -8 -30 -17 -12 -12 -9 -4 8 20 16 20 25 37 20 37 -4 0 2 10 13 23 11
12 33 45 49 72 42 74 103 162 117 169 39 19 71 44 75 56 5 13 3 13 -14 0 -18
-14 -18 -14 -5 2 7 10 17 16 21 13 4 -2 18 7 30 20 23 25 30 29 30 20z m-235
-85 c-21 -22 -44 -40 -50 -40 -9 1 74 79 85 80 2 0 -14 -18 -35 -40z m105 26
c0 -2 -8 -10 -17 -17 -16 -13 -17 -12 -4 4 13 16 21 21 21 13z m-16 -44 c-23
-20 -44 -46 -48 -56 -4 -10 -9 -16 -13 -12 -4 3 -19 -6 -35 -21 -48 -46 -31
-15 23 43 29 30 57 54 64 54 7 0 18 7 25 15 7 8 15 15 19 15 3 0 -13 -17 -35
-38z m-70 -24 c-21 -24 -56 -56 -77 -72 l-40 -30 18 27 c9 15 21 27 26 27 4 0
28 20 53 45 58 57 70 58 20 3z m-84 7 c0 -15 -319 -176 -348 -175 -12 1 29 22
118 60 47 21 116 56 155 79 73 43 75 44 75 36z m29 -19 c-13 -12 -139 -85
-139 -81 0 7 123 85 134 85 5 0 7 -2 5 -4z m29 -93 c-19 -26 -49 -74 -67 -106
-18 -31 -42 -62 -54 -69 -19 -10 -50 -32 -95 -69 -7 -5 -17 -7 -22 -4 -5 3
-24 -1 -42 -9 -28 -13 -117 -40 -201 -61 -12 -3 -4 4 18 14 22 11 51 20 65 20
14 1 34 7 45 15 11 7 36 17 55 21 19 4 40 11 46 17 7 5 16 7 22 6 5 -2 29 13
53 32 24 19 47 34 52 32 4 -1 11 8 16 21 5 12 16 29 26 37 24 20 47 69 39 82
-4 7 -3 8 4 4 7 -4 22 10 38 34 15 22 29 38 31 36 3 -2 -11 -26 -29 -53z m332
37 c0 -5 -5 -10 -11 -10 -6 0 -9 -7 -6 -15 4 -8 2 -17 -4 -20 -5 -4 -12 1 -15
9 -3 9 -11 13 -16 10 -6 -4 -5 -10 3 -15 11 -6 5 -17 -25 -46 l-40 -38 28 40
c25 36 23 35 -24 -13 -66 -69 -79 -59 -14 11 68 73 124 113 124 87z m-442 -23
c-16 -13 -28 -27 -28 -33 0 -8 -32 -27 -94 -53 -5 -2 -6 1 -2 8 4 6 4 11 -1
11 -11 0 -40 -20 -29 -20 5 0 3 -7 -4 -15 -8 -9 -9 -15 -2 -15 6 0 14 5 17 11
4 5 14 8 23 6 10 -2 39 12 65 30 27 19 51 32 54 30 5 -6 -2 -11 -72 -65 -27
-20 -61 -43 -75 -49 -37 -17 -8 -15 34 2 20 8 36 20 36 25 0 5 15 16 34 24 19
8 40 24 46 36 6 12 14 19 17 17 2 -3 -4 -18 -14 -33 -18 -28 -18 -28 2 -20 14
5 9 -4 -15 -29 -19 -20 -45 -38 -57 -41 -12 -3 -20 -11 -17 -18 5 -13 -140
-73 -231 -96 -27 -7 -54 -16 -60 -20 -5 -4 -32 -4 -60 1 l-50 8 52 -3 c29 -2
56 0 60 4 13 12 87 34 102 31 8 -1 10 2 5 10 -4 7 -3 10 2 6 6 -3 41 5 80 19
95 33 97 34 92 39 -3 4 -27 -2 -148 -36 -19 -6 -53 -12 -75 -14 -22 -1 -60 -6
-85 -9 -58 -8 -42 -2 35 14 233 46 291 64 329 101 38 37 29 37 -26 0 -49 -32
-108 -55 -108 -41 0 5 -19 0 -42 -10 -24 -11 -59 -19 -78 -18 -26 0 -28 2 -10
5 33 5 114 34 120 43 3 4 20 15 38 24 19 10 32 19 30 22 -3 2 -37 -13 -76 -33
-57 -29 -86 -37 -135 -39 l-62 -3 57 9 c55 9 163 48 155 57 -3 2 -29 -5 -58
-17 -30 -11 -72 -19 -94 -18 -32 1 -34 2 -10 5 43 5 164 44 171 54 7 12 5 12
-62 -11 -34 -12 -69 -18 -84 -15 -27 7 -17 17 30 29 21 5 21 4 -5 -9 l-30 -15
35 6 c19 3 61 17 94 30 32 13 62 21 67 18 11 -6 65 22 76 39 8 14 54 47 63 47
3 -1 -7 -11 -22 -23z m-88 -12 c0 -6 -76 -45 -87 -45 -4 1 12 12 37 25 50 27
50 27 50 20z m5 -25 c-3 -5 -12 -10 -18 -10 -7 0 -6 4 3 10 19 12 23 12 15 0z
m2113 -30 c-13 -22 -33 -53 -45 -68 l-23 -27 17 35 c9 19 19 37 22 40 4 3 14
17 24 33 27 42 31 32 5 -13z m-3738 10 c8 -5 11 -10 5 -10 -5 0 -17 5 -25 10
-8 5 -10 10 -5 10 6 0 17 -5 25 -10z m1515 -9 c-6 -5 -21 -12 -35 -15 l-25 -7
25 15 c28 17 50 21 35 7z m405 -32 c-19 -15 -29 -29 -21 -29 11 0 11 -3 1 -15
-7 -8 -16 -13 -20 -10 -4 2 -19 -9 -35 -25 -15 -15 -33 -26 -40 -24 -6 3 -27
-12 -45 -33 -18 -21 -43 -44 -54 -52 -20 -14 6 16 81 94 17 18 39 48 49 66 9
19 19 28 22 21 2 -7 -6 -29 -17 -50 -21 -36 -21 -36 -1 -12 38 47 104 109 109
104 3 -3 -10 -19 -29 -35z m-520 17 c0 -2 -9 -6 -20 -9 -11 -3 -18 -1 -14 4 5
9 34 13 34 5z m-17 -53 c-7 -2 -19 -2 -25 0 -7 3 -2 5 12 5 14 0 19 -2 13 -5z
m-136 -30 c-20 -2 -52 -2 -70 0 -17 2 0 4 38 4 39 0 53 -2 32 -4z m93 3 c0 -2
-9 -6 -20 -9 -11 -3 -18 -1 -14 4 5 9 34 13 34 5z m564 -11 c-3 -6 -14 -16
-27 -24 -15 -9 -18 -9 -10 -1 6 7 9 18 7 24 -2 6 4 12 15 12 10 0 17 -5 15
-11z m-901 -12 c-7 -2 -19 -2 -25 0 -7 3 -2 5 12 5 14 0 19 -2 13 -5z m2657
-7 c0 -2 -8 -10 -17 -17 -16 -13 -17 -12 -4 4 13 16 21 21 21 13z m-2637 -13
c-7 -2 -21 -2 -30 0 -10 3 -4 5 12 5 17 0 24 -2 18 -5z m257 -9 c0 -2 -24 -3
-52 -3 -52 2 -53 2 -13 8 37 6 65 4 65 -5z m-193 0 c-3 -3 -12 -4 -19 -1 -8 3
-5 6 6 6 11 1 17 -2 13 -5z m280 0 c-3 -3 -12 -4 -19 -1 -8 3 -5 6 6 6 11 1
17 -2 13 -5z m317 -7 c-2 -7 -14 -19 -27 -26 -21 -13 -21 -12 2 13 27 29 33
32 25 13z m48 -10 c-11 -12 -46 -35 -77 -51 -30 -16 -55 -33 -55 -38 0 -11 7
-10 41 8 17 8 33 13 36 10 3 -2 -13 -13 -34 -23 -32 -16 -41 -17 -51 -6 -7 7
-10 13 -6 13 4 0 5 2 2 5 -2 3 -22 -4 -44 -14 -57 -28 -152 -54 -201 -55 -23
-1 -45 -5 -49 -9 -4 -4 -21 -6 -38 -6 -27 2 -28 2 -6 6 14 3 30 8 35 12 18 14
46 21 40 11 -11 -18 30 -11 121 21 49 17 95 31 102 31 14 1 16 14 3 22 -5 3
-14 -1 -21 -10 -7 -8 -19 -13 -27 -10 -7 3 -13 2 -13 -2 0 -7 -54 -23 -130
-38 -22 -4 -21 -3 5 10 25 11 53 20 130 39 6 1 15 6 21 9 6 4 24 12 39 18 25
9 26 9 15 -5 -19 -23 4 -18 25 5 25 27 43 26 19 -2 l-19 -22 35 22 c19 12 49
29 67 37 17 8 34 19 38 25 3 5 9 10 12 10 4 0 -3 -10 -15 -23z m-829 6 c-7 -2
-21 -2 -30 0 -10 3 -4 5 12 5 17 0 24 -2 18 -5z m936 4 c-2 -1 -13 -9 -24 -17
-19 -14 -19 -14 -6 3 7 9 18 17 24 17 6 0 8 -1 6 -3z m-751 -14 c-10 -2 -28
-2 -40 0 -13 2 -5 4 17 4 22 1 32 -1 23 -4z m2531 -15 c-22 -42 -169 -228
-169 -214 0 9 30 60 30 51 0 -5 6 0 13 12 14 24 130 173 135 173 1 0 -3 -10
-9 -22z m-2582 -4 c-3 -3 -12 -4 -19 -1 -8 3 -5 6 6 6 11 1 17 -2 13 -5z m106
-1 c-7 -2 -19 -2 -25 0 -7 3 -2 5 12 5 14 0 19 -2 13 -5z m237 -8 c-19 -7 -48
-13 -65 -13 -23 0 -20 2 14 9 24 5 46 11 49 14 3 3 12 5 21 4 9 0 0 -7 -19
-14z m-137 -2 c-13 -2 -33 -2 -45 0 -13 2 -3 4 22 4 25 0 35 -2 23 -4z m-80
-10 c-7 -2 -21 -2 -30 0 -10 3 -4 5 12 5 17 0 24 -2 18 -5z m117 -7 c0 -2 -18
-6 -40 -8 -22 -2 -40 0 -40 4 0 5 18 8 40 8 22 0 40 -2 40 -4z m-107 -13 c-7
-2 -21 -2 -30 0 -10 3 -4 5 12 5 17 0 24 -2 18 -5z m-75 -10 c-10 -2 -28 -2
-40 0 -13 2 -5 4 17 4 22 1 32 -1 23 -4z m105 -10 c-13 -2 -33 -2 -45 0 -13 2
-3 4 22 4 25 0 35 -2 23 -4z m-90 -10 c-13 -2 -35 -2 -50 0 -16 2 -5 4 22 4
28 0 40 -2 28 -4z m175 0 c-10 -2 -28 -2 -40 0 -13 2 -5 4 17 4 22 1 32 -1 23
-4z m-60 -20 c2 -9 -6 -13 -25 -12 l-28 1 25 8 c23 7 21 8 -15 12 l-40 5 39
-1 c22 0 41 -7 44 -13z m-115 0 c-13 -2 -33 -2 -45 0 -13 2 -3 4 22 4 25 0 35
-2 23 -4z m160 0 c-7 -2 -19 -2 -25 0 -7 3 -2 5 12 5 14 0 19 -2 13 -5z m297
-8 c-14 -7 -27 -11 -30 -9 -6 7 22 24 40 23 9 0 5 -6 -10 -14z m-54 -17 c4 -6
3 -8 -4 -4 -6 3 -13 2 -17 -4 -3 -5 -12 -10 -18 -10 -7 0 -3 7 7 15 24 18 23
18 32 3z m-549 -4 c-3 -3 -12 -4 -19 -1 -8 3 -5 6 6 6 11 1 17 -2 13 -5z m126
-1 c-7 -2 -19 -2 -25 0 -7 3 -2 5 12 5 14 0 19 -2 13 -5z m160 0 c-7 -2 -19
-2 -25 0 -7 3 -2 5 12 5 14 0 19 -2 13 -5z m-366 -9 c-3 -3 -12 -4 -19 -1 -8
3 -5 6 6 6 11 1 17 -2 13 -5z m306 -1 c-13 -2 -33 -2 -45 0 -13 2 -3 4 22 4
25 0 35 -2 23 -4z m265 -8 c-2 -2 -23 -8 -47 -14 -48 -10 -47 -2 2 14 28 10
55 9 45 0z m-355 -2 c-7 -2 -19 -2 -25 0 -7 3 -2 5 12 5 14 0 19 -2 13 -5z
m456 3 c-2 -2 -26 -10 -53 -19 -53 -18 -55 -10 -3 10 31 11 65 17 56 9z m-351
-13 c-10 -2 -28 -2 -40 0 -13 2 -5 4 17 4 22 1 32 -1 23 -4z m97 -2 c-6 -5
-26 -11 -45 -15 -35 -5 -35 -5 5 9 50 17 51 17 40 6z m-172 -8 c-7 -2 -19 -2
-25 0 -7 3 -2 5 12 5 14 0 19 -2 13 -5z m77 -13 c18 -12 2 -12 -25 0 -13 6
-15 9 -5 9 8 0 22 -4 30 -9z m147 4 c-3 -3 -12 -4 -19 -1 -8 3 -5 6 6 6 11 1
17 -2 13 -5z m-209 -11 c-10 -2 -28 -2 -40 0 -13 2 -5 4 17 4 22 1 32 -1 23
-4z m262 -2 c0 -5 -11 -11 -25 -13 -14 -3 -25 -2 -25 3 0 4 10 10 23 12 12 2
23 5 25 6 1 0 2 -3 2 -8z m-131 -11 c-24 -14 -100 -29 -93 -19 3 5 15 9 27 9
12 0 29 5 37 10 8 5 22 10 30 10 13 -1 13 -2 -1 -10z m-136 -7 c-7 -2 -21 -2
-30 0 -10 3 -4 5 12 5 17 0 24 -2 18 -5z m157 -22 c-19 -10 -140 -34 -146 -28
-5 5 113 35 141 36 16 0 17 -1 5 -8z m-207 -8 c-13 -2 -33 -2 -45 0 -13 2 -3
4 22 4 25 0 35 -2 23 -4z m74 1 c-3 -3 -12 -4 -19 -1 -8 3 -5 6 6 6 11 1 17
-2 13 -5z m-204 -21 c-18 -2 -48 -2 -65 0 -18 2 -4 4 32 4 36 0 50 -2 33 -4z
m166 -7 c-11 -9 -90 -16 -84 -6 3 5 25 10 47 10 23 0 39 -2 37 -4z m2291 0 c0
-2 -8 -10 -17 -17 -16 -13 -17 -12 -4 4 13 16 21 21 21 13z m-77 -92 c-55 -66
-332 -334 -344 -334 -4 0 20 26 53 58 63 58 215 213 284 289 58 62 63 52 7
-13z m-493 -468 c0 -2 -7 -7 -16 -10 -8 -3 -12 -2 -9 4 6 10 25 14 25 6z"/>
<path d="M4555 7800 c-3 -5 -1 -10 4 -10 6 0 11 5 11 10 0 6 -2 10 -4 10 -3 0
-8 -4 -11 -10z"/>
<path d="M4465 7532 c-27 -15 -52 -30 -53 -35 -2 -4 -9 -4 -14 -1 -7 4 -8 2
-4 -4 4 -6 -4 -17 -17 -24 -14 -7 -37 -29 -53 -48 l-28 -35 30 26 c49 44 165
120 203 134 30 11 32 14 11 13 -14 0 -47 -12 -75 -26z"/>
<path d="M4264 7352 c-27 -34 -47 -72 -41 -78 2 -2 20 21 41 51 37 56 37 75 0
27z"/>
<path d="M4150 7218 c-16 -34 -28 -63 -26 -66 5 -4 26 34 49 91 25 59 10 43
-23 -25z"/>
<path d="M4040 7084 c0 -8 5 -12 10 -9 6 4 8 11 5 16 -9 14 -15 11 -15 -7z"/>
<path d="M4026 7045 c-9 -26 -7 -32 5 -12 6 10 9 21 6 23 -2 3 -7 -2 -11 -11z"/>
<path d="M4001 6994 c0 -11 3 -14 6 -6 3 7 2 16 -1 19 -3 4 -6 -2 -5 -13z"/>
<path d="M3986 6948 c-3 -13 -5 -36 -5 -53 1 -21 4 -15 10 20 8 52 6 72 -5 33z"/>
<path d="M3971 6834 c0 -11 3 -14 6 -6 3 7 2 16 -1 19 -3 4 -6 -2 -5 -13z"/>
<path d="M4027 4666 c-4 -10 -5 -21 -2 -24 9 -9 17 6 13 25 -3 17 -4 17 -11
-1z"/>
<path d="M3867 6695 c-4 -22 -6 -78 -5 -125 l1 -85 8 115 c9 120 7 163 -4 95z"/>
<path d="M3864 6135 c0 -60 1 -84 3 -52 2 32 2 81 0 110 -2 29 -3 3 -3 -58z"/>
<path d="M3787 6123 c-2 -5 0 -21 4 -38 7 -29 7 -29 8 8 1 35 -3 46 -12 30z"/>
<path d="M6920 5951 c0 -6 4 -13 10 -16 6 -3 7 1 4 9 -7 18 -14 21 -14 7z"/>
<path d="M7203 4430 c0 -25 2 -35 4 -22 2 12 2 32 0 45 -2 12 -4 2 -4 -23z"/>
<path d="M7180 4356 c0 -9 5 -16 10 -16 6 0 10 4 10 9 0 6 -4 13 -10 16 -5 3
-10 -1 -10 -9z"/>
<path d="M7122 4370 c0 -14 2 -19 5 -12 2 6 2 18 0 25 -3 6 -5 1 -5 -13z"/>
<path d="M7118 4315 c-3 -14 -1 -28 3 -31 5 -3 9 9 9 25 0 38 -6 40 -12 6z"/>
<path d="M7172 4087 c-17 -21 -104 -198 -100 -203 3 -2 30 44 62 102 52 98 66
135 38 101z"/>
<path d="M6807 3703 c-4 -3 -7 -11 -7 -17 0 -6 5 -5 12 2 6 6 9 14 7 17 -3 3
-9 2 -12 -2z"/>
<path d="M6693 3638 c-20 -23 -45 -84 -26 -63 13 14 56 85 51 85 -3 0 -14 -10
-25 -22z"/>
<path d="M6941 3780 c-19 -38 -37 -68 -41 -65 -10 6 -108 -97 -119 -127 -9
-23 -8 -26 9 -25 20 1 34 22 25 36 -2 4 2 8 10 8 8 0 15 -3 15 -6 0 -8 -53
-111 -76 -148 l-18 -28 23 20 c24 21 85 138 86 166 0 8 20 39 45 67 24 29 44
63 46 76 1 13 10 38 19 56 9 17 15 34 13 36 -2 2 -19 -28 -37 -66z m-41 -83
c0 -2 -10 -12 -22 -23 l-23 -19 19 23 c18 21 26 27 26 19z"/>
<path d="M6525 3450 c-12 -13 -14 -20 -5 -20 10 0 10 -3 0 -15 -7 -8 -16 -13
-20 -10 -5 3 -23 -21 -42 -52 -42 -74 -45 -81 -25 -64 10 7 17 18 17 24 0 6
25 37 56 68 44 44 54 60 47 73 -8 15 -11 15 -28 -4z m25 -4 c0 -3 -4 -8 -10
-11 -5 -3 -10 -1 -10 4 0 6 5 11 10 11 6 0 10 -2 10 -4z"/>
<path d="M6529 3393 c-55 -62 -74 -87 -55 -73 18 14 19 13 13 -3 -3 -9 14 3
40 27 26 25 51 42 56 39 5 -3 4 4 -2 16 -15 27 -22 27 -52 -6z m30 -5 c-2 -2
-20 -16 -39 -33 l-35 -30 34 37 c19 21 37 36 39 33 3 -3 3 -6 1 -7z"/>
</g>
</svg>
